<?xml version="1.0"?>
<svg xmlns="http://www.w3.org/2000/svg" viewBox="0 0 64 64" width="512" height="512" fill="#fff"><g id="outline"><path d="M57,6H54V3a1,1,0,0,0-1-1H33a1,1,0,0,0-1,1V6H5a3,3,0,0,0,0,6H32v1a3.869,3.869,0,0,0,4,4h2v4.063A8.726,8.726,0,0,0,31.467,25H31a14.991,14.991,0,0,0-1,29.949V58a4,4,0,0,0,4,4H52a4,4,0,0,0,4-4V55h5a1,1,0,0,0,1-1V44a1,1,0,0,0-1-1H56V30a9.5,9.5,0,0,0-.282-2.319A15.966,15.966,0,0,0,62,15V11A5.006,5.006,0,0,0,57,6ZM6,10H5A1,1,0,0,1,5,8H6ZM56,45h4v8H56ZM34,4H52V6H34Zm2,11a1.894,1.894,0,0,1-2-2V12h2ZM8,10V8H57a3.006,3.006,0,0,1,2.829,2Zm40,7h2a3.869,3.869,0,0,0,4-4V12h2v3a9.984,9.984,0,0,1-3.624,7.7A9.054,9.054,0,0,0,48,21.057Zm-2-2V12h2v3Zm4,0V12h2v1A1.894,1.894,0,0,1,50,15ZM40,17h6v4H40Zm-2-2V12h2v3Zm4,0V12h2v3Zm-3,8h8a7.269,7.269,0,0,1,3.538.9A9.929,9.929,0,0,1,46,25H34A6.99,6.99,0,0,1,39,23ZM54,58a2,2,0,0,1-2,2H34a2,2,0,0,1-2-2V55H54Zm0-9H32V31H46a15.877,15.877,0,0,0,7.913-2.112A7.677,7.677,0,0,1,54,30ZM46,29H31a11,11,0,0,0,0,22H54v2H31a13,13,0,0,1,0-26H46A12.016,12.016,0,0,0,57.958,16h2.007A14.019,14.019,0,0,1,46,29ZM30,31.059V48.941a9,9,0,0,1,0-17.882ZM60,14H58V12h2Z"/><path d="M49,35H37a1,1,0,0,0-1,1v8a1,1,0,0,0,1,1H49a1,1,0,0,0,1-1V36A1,1,0,0,0,49,35Zm-1,8H38V37H48Z"/><rect x="40" y="39" width="6" height="2"/></g></svg>
