<?xml version="1.0" encoding="utf-8"?>
<!-- Generator: Adobe Illustrator 19.2.1, SVG Export Plug-In . SVG Version: 6.00 Build 0)  -->
<svg version="1.1" id="layer" xmlns="http://www.w3.org/2000/svg" xmlns:xlink="http://www.w3.org/1999/xlink" x="0px" y="0px"
	 viewBox="0 0 652 652" style="enable-background:new 0 0 652 652;" xml:space="preserve">
<style type="text/css">
	.st0{fill-rule:evenodd;clip-rule:evenodd;fill:#EC2123;}
	.st1{fill-rule:evenodd;clip-rule:evenodd;fill:#FFFFFF;}
	.st2{fill:none;stroke:#D1D3D3;stroke-width:0.58;stroke-miterlimit:2.613;}
	.st3{fill:#fff;}
</style>
<rect x="210.1" y="238.9" class="st0" width="62.9" height="166.6"/>
<rect x="20.1" y="238.9" class="st0" width="63" height="166.6"/>
<rect x="83" y="264" class="st1" width="127.1" height="127.2"/>
<path class="st0" d="M149,380.7c-0.6-10.3-0.9-17-1.1-23.5c-0.2-2.8,2.3-2.5,4-2.2c14.9,2.3,21.9,3.4,21.9,3.4
	c-7.7-14.7,11.7-21.7,21.7-30.2c-7.8-2.6-6.7-1.6-1.7-20.3c-16.2,5.2-14.8,3.6-18.3-4.4c0,0-1.2,1.4-11.3,12.9
	c-1.4,1.6-3.9,0.5-3.4-2c5.3-26.1,5.5-27.1,5.5-27.1c-10.3,6.2-9.8,6.5-11.5,3.3c-5.6-11-8.3-16.3-8.3-16.3s-2.6,5.3-8.2,16.3
	c-1.6,3.3-1.2,2.9-11.5-3.3c0,0,0.3,1,5.5,27.1c0.5,2.5-1.8,3.6-3.3,2c-10.1-11.4-11.4-12.9-11.4-12.9c-3.4,8-2.1,9.5-18.3,4.4
	c5,18.6,6.1,17.7-1.7,20.3c10,8.5,29.4,15.5,21.6,30.2c0,0,7-1.1,21.9-3.4c1.7-0.3,4.2-0.6,4.1,2.2c-0.3,6.5-0.5,13.2-1.1,23.5H149z
	"/>
<rect x="20.1" y="238.9" class="st2" width="252.9" height="166.6"/>
<polygon class="st3" points="354.8,241.5 363.6,241.5 363.6,305.3 354.8,305.3 354.8,275.5 320.8,275.5 320.8,305.3 312.1,305.3 
	312.1,241.5 320.8,241.5 320.8,267.9 354.8,267.9 "/>
<path class="st3" d="M416.6,290.7c-0.2,2.2-2.5,8.8-8.4,12.7c-2.2,1.4-5.3,3.2-12.9,3.2c-13.3,0-21.2-9.9-21.2-23.3
	c0-14.4,7.1-25.9,22.7-25.9c13.6,0,20.4,10.6,20.4,27.2h-34.6c0,9.7,4.6,15.2,13.8,15.2c7.5,0,12-5.6,12.2-9.2H416.6z M409,278.4
	c-0.4-7.2-3.5-13.9-13.3-13.9c-7.3,0-13.1,6.7-13.1,13.9H409z"/>
<path class="st3" d="M426.5,273c0.3-11.2,7.8-15.5,19.6-15.5c3.7,0,17.5,1,17.5,13v26.8c0,1.9,1,2.7,2.6,2.7l2.6-0.4v5.7
	c-1.4,0.3-2.6,0.9-4.4,0.9c-7.1,0-8.1-3.6-8.4-7.1c-3,3.3-7.9,7.6-17.1,7.6c-8.7,0-14.9-5.4-14.9-13.5c0-3.9,1.2-13,14.4-14.5
	l13.2-1.6c1.9-0.2,4.2-0.9,4.2-5.5c0-4.8-3.7-7.6-11.2-7.6c-9.1,0-10.3,5.4-10.9,9H426.5z M455.7,281.6c-1.3,0.9-3.3,1.7-13.2,2.9
	c-3.9,0.6-10.1,1.8-10.1,7.6c0,5.1,2.6,8.1,8.6,8.1c7.5,0,14.7-4.6,14.7-10.9V281.6z"/>
<rect x="477.4" y="241.5" class="st3" width="8" height="63.8"/>
<path class="st3" d="M507.1,265.3v30.3c0,3.6,3.2,3.6,4.8,3.6h2.8v6.1c-3,0.3-5.2,0.5-6,0.5c-7.9,0-9.5-4.3-9.5-9.9v-30.7h-6.5v-6.5
	h6.5v-13h7.9v13h7.6v6.5H507.1z"/>
<path class="st3" d="M561.1,305.3h-8v-30.4c0-6.3-1.8-10.4-9.4-10.4c-6.5,0-13.2,3.7-13.2,15.5v25.4h-8v-63.8h8V265h0.2
	c2.3-2.9,6.3-7.6,13.8-7.6c7.4,0,16.6,2.9,16.6,16.1V305.3z"/>
<path class="st3" d="M357.6,348.3c-2.4-11.3-11.9-13.2-18.2-13.2c-11.8,0-21.3,8.5-21.3,25.3c0,15,5.4,26.5,21.6,26.5
	c5.7,0,15.6-2.6,18.6-17.5h8.5c-3.6,24.1-23.5,25.1-28.4,25.1c-14.8,0-29.3-9.4-29.3-33.9c0-19.7,11.3-33.3,30.3-33.3
	c16.8,0,25.5,10.2,26.7,20.9H357.6z"/>
<path class="st3" d="M376.2,360.6c0.3-11.1,7.8-15.4,19.5-15.4c3.9,0,17.6,1,17.6,12.9v26.7c0,2,1,2.8,2.6,2.8l2.6-0.3v5.6
	c-1.4,0.4-2.6,0.9-4.4,0.9c-7,0-8.1-3.5-8.4-7.1c-3.1,3.3-7.9,7.6-17.2,7.6c-8.7,0-14.9-5.4-14.9-13.4c0-3.9,1.3-13,14.4-14.6
	l13.2-1.6c1.9-0.1,4.2-0.9,4.2-5.4c0-4.9-3.6-7.6-11.2-7.6c-9.1,0-10.3,5.4-10.8,9H376.2z M405.3,369.2c-1.2,1-3.3,1.7-13.2,2.9
	c-3.9,0.5-10.1,1.7-10.1,7.6c0,5.1,2.6,8.1,8.6,8.1c7.4,0,14.7-4.7,14.7-10.9V369.2z"/>
<path class="st3" d="M465.4,392.9h-8v-28.6c0-8-2.4-12.1-10.2-12.1c-4.5,0-12.5,2.9-12.5,15.5v25.2h-8v-46.5h7.6v6.6h0.2
	c1.7-2.5,6.2-7.8,14.3-7.8c7.3,0,16.6,2.9,16.6,16.1V392.9z"/>
<path class="st3" d="M476.8,360.6c0.5-11.1,8-15.4,19.6-15.4c3.8,0,17.6,1,17.6,12.9v26.7c0,2,1,2.8,2.6,2.8l2.6-0.3v5.6
	c-1.4,0.4-2.5,0.9-4.4,0.9c-7.1,0-8.3-3.5-8.5-7.1c-3.1,3.3-7.8,7.6-17.1,7.6c-8.7,0-14.8-5.4-14.8-13.4c0-3.9,1.2-13,14.4-14.6
	l13.1-1.6c1.9-0.1,4.2-0.9,4.2-5.4c0-4.9-3.6-7.6-11.1-7.6c-9,0-10.3,5.4-10.8,9H476.8z M506.1,369.2c-1.3,1-3.3,1.7-13.2,2.9
	c-3.9,0.5-10.1,1.7-10.1,7.6c0,5.1,2.6,8.1,8.6,8.1c7.4,0,14.7-4.7,14.7-10.9V369.2z"/>
<path class="st3" d="M566.9,392.8h-7.5v-6.4h-0.2c-3.4,6.4-8.9,7.8-13.5,7.8c-16.1,0-20.8-14.9-20.8-26c0-13,7.1-23.1,19.8-23.1
	c8.6,0,12.3,5.2,14.1,7.8l0.2-0.6v-23.3h8V392.8z M545.9,387.5c5,0,12.9-3.3,12.9-15.6c0-7.6-1.3-19.7-12.8-19.7
	c-12.3,0-12.9,11.5-12.9,17.4C533.1,379.8,537.2,387.5,545.9,387.5"/>
<path class="st3" d="M577.7,360.6c0.3-11.1,7.8-15.4,19.5-15.4c3.8,0,17.6,1,17.6,12.9v26.7c0,2,1,2.8,2.6,2.8l2.7-0.3v5.6
	c-1.3,0.4-2.6,0.9-4.4,0.9c-7.1,0-8.2-3.5-8.4-7.1c-3.1,3.3-7.9,7.6-17.2,7.6c-8.7,0-14.8-5.4-14.8-13.4c0-3.9,1.1-13,14.4-14.6
	l13.2-1.6c1.9-0.1,4.1-0.9,4.1-5.4c0-4.9-3.6-7.6-11.1-7.6c-9.1,0-10.4,5.4-10.9,9H577.7z M606.9,369.2c-1.3,1-3.3,1.7-13.2,2.9
	c-3.9,0.5-10.2,1.7-10.2,7.6c0,5.1,2.7,8.1,8.7,8.1c7.4,0,14.7-4.7,14.7-10.9V369.2z"/>
</svg>
